<svg xmlns="http://www.w3.org/2000/svg" width="481.89" height="130.394"><path fill="none" fill-rule="evenodd" d="M472.242 0H9.647C4.342 0 0 4.341 0 9.647v111.099c0 5.306 4.342 9.648 9.647 9.648h462.595c5.306 0 9.648-4.342 9.648-9.648V9.647c0-5.306-4.341-9.647-9.648-9.647"/><path fill="none" stroke="#1d1d1b" stroke-miterlimit="22.926" stroke-width=".216" d="M472.242 0H9.647C4.342 0 0 4.341 0 9.647v111.099c0 5.306 4.342 9.648 9.647 9.648h462.595c5.306 0 9.648-4.342 9.648-9.648V9.647c0-5.306-4.341-9.647-9.648-9.647Z"/><path fill="#fff" fill-rule="evenodd" d="M43.482 87.02H38.41l-.007-.972h5.072l-.03-4.166h1.121l.03 4.166h5.073l.007.972h-5.073l.03 4.166h-1.12Zm8.706 1.157h1.566q.01.309.011.41.006.852.164 1.207c.108.24.305.399.596.487q.304.096 1.69.161 1.383.066 3.052.065 1.32 0 2.45-.067 1.126-.07 1.446-.16a.87.87 0 0 0 .578-.493q.162-.366.157-1.19-.006-.664-.19-.965-.184-.303-.675-.463-.182-.058-1.032-.12a22 22 0 0 0-1.47-.06h-3.354l-.009-1.173h3.797q1.77 0 2.28-.283.504-.28.497-1.265-.005-.662-.2-1.008-.193-.346-.629-.473-.734-.21-4.054-.21-3.809 0-4.491.303a.77.77 0 0 0-.4.424q-.11.283-.103.936l.021.558H52.27q.012-1.361.164-1.9.148-.54.596-.88c.239-.18.499-.311.789-.39q.435-.12 1.259-.173 1.21-.081 3.808-.082 2.604 0 3.712.105 1.109.106 1.658.406.585.323.815.793t.236 1.373q.008 1.15-.259 1.579-.269.427-1.193.766.928.211 1.266.712.338.503.345 1.692.008 1.313-.446 1.878-.344.431-.862.642-.513.21-1.383.294-1.117.096-3.76.097-3.629 0-4.858-.195a2.66 2.66 0 0 1-1.148-.476q-.489-.364-.632-.861-.178-.598-.19-2.001m14.897.57h1.536q.005.58.108.878.103.297.356.476c.25.182.61.3 1.085.362q.708.09 2.413.09 2.44 0 3.626-.097 1.188-.097 1.662-.348a.97.97 0 0 0 .448-.432q.139-.274.204-.884a17 17 0 0 0 .06-2.304q-.336.486-1.02.786-.477.212-1.354.288-.874.075-2.814.075-2.328 0-3.332-.082-1.004-.085-1.616-.332a1.83 1.83 0 0 1-.982-.941q-.322-.671-.33-1.8-.01-1.211.377-1.86.299-.488.85-.745.548-.255 1.539-.36 1.414-.144 3.55-.144 2.917 0 4.302.218 1.042.165 1.69.82.411.415.555 1.178.145.764.158 2.562.02 2.874-.275 3.77-.265.834-.964 1.206-.705.374-2.186.486-1.33.096-4.232.097-2.257 0-3.202-.162-.944-.161-1.52-.643a1.65 1.65 0 0 1-.53-.763q-.138-.433-.162-1.394m7.392-6.17q-3.323-.002-4.452.156-.754.114-1.043.473-.287.362-.282 1.194.01 1.284.525 1.643.358.254 1.218.324.864.065 3.747.066c1.086 0 1.857-.023 2.322-.072q.695-.07 1.128-.28.466-.231.652-.563.184-.33.18-.938-.007-.833-.273-1.235-.27-.4-.933-.566-.763-.204-2.79-.203m11.828 5.6h1.566l.012.41q.005.852.163 1.207c.108.24.305.399.597.487q.304.096 1.688.161 1.386.066 3.053.065 1.321 0 2.45-.067 1.126-.07 1.447-.16a.87.87 0 0 0 .577-.493q.162-.366.157-1.19-.005-.664-.19-.965-.185-.303-.674-.463-.183-.058-1.033-.12a22 22 0 0 0-1.469-.06h-3.355l-.008-1.173h3.796q1.77 0 2.28-.283.504-.28.498-1.265-.007-.662-.2-1.008-.194-.346-.63-.473-.734-.21-4.053-.21-3.81 0-4.492.303a.77.77 0 0 0-.4.424q-.108.283-.103.936l.022.558h-1.617q.012-1.361.164-1.9a1.6 1.6 0 0 1 .596-.88c.24-.18.5-.311.79-.39q.436-.12 1.258-.173 1.21-.081 3.809-.082 2.602 0 3.711.105 1.109.106 1.658.406.585.323.816.793.228.47.235 1.373.01 1.15-.259 1.579-.268.427-1.192.766.927.211 1.266.712.336.503.344 1.692.01 1.313-.446 1.878-.344.431-.861.642-.514.21-1.384.294-1.117.096-3.76.097-3.63 0-4.857-.195a2.7 2.7 0 0 1-1.149-.476q-.489-.364-.632-.861-.177-.598-.19-2.001m14.834 0h1.566l.012.41q.005.852.163 1.207c.108.24.305.399.597.487q.304.096 1.688.161 1.386.066 3.053.065 1.321 0 2.45-.067 1.126-.07 1.446-.16a.87.87 0 0 0 .578-.493q.163-.366.158-1.19-.007-.664-.191-.965-.185-.303-.674-.463-.183-.058-1.033-.12a22 22 0 0 0-1.469-.06h-3.355l-.008-1.173h3.796q1.77 0 2.28-.283.504-.28.498-1.265-.007-.662-.2-1.008-.194-.346-.63-.473-.734-.21-4.053-.21-3.81 0-4.492.303a.77.77 0 0 0-.4.424q-.108.283-.103.936l.022.558h-1.617q.012-1.361.164-1.9a1.6 1.6 0 0 1 .596-.88c.24-.18.5-.311.79-.39q.435-.12 1.258-.173 1.21-.081 3.809-.082 2.603 0 3.711.105 1.109.106 1.658.406.585.323.816.793.229.47.235 1.373.009 1.15-.258 1.579-.27.427-1.193.766.927.211 1.266.712.335.503.344 1.692.01 1.313-.446 1.878-.343.431-.861.642-.514.21-1.384.294-1.116.096-3.76.097-3.63 0-4.857-.195a2.66 2.66 0 0 1-1.148-.476q-.49-.364-.633-.861-.178-.598-.19-2.001m15.19-6.789h12.637l.008 1.173H117.87l.022 2.988q.43-.506.944-.656.814-.25 3.667-.25 2.583.001 3.849.145 1.267.142 1.87.504.62.376.9 1.054.276.679.286 1.839.01 1.379-.385 2.1-.334.619-.893.916c-.372.198-.884.33-1.54.388q-.651.053-3.955.121-3.022-.045-3.575-.072a7.5 7.5 0 0 1-1.134-.146 2.1 2.1 0 0 1-1.416-.967 2 2 0 0 1-.287-.718q-.078-.392-.11-1.337h1.48q.022.702.099.988.075.288.276.475.229.228.596.332.366.107 1.08.167.968.075 2.745.075 3.859 0 4.666-.309.426-.157.61-.666.182-.509.176-1.496-.007-.857-.206-1.286-.198-.433-.699-.663-.4-.182-1.401-.25c-.671-.044-1.778-.067-3.329-.067q-3.206 0-3.91.38-.327.175-.395.638h-1.531Zm31.924 3.009h-1.548c-.015-.409-.04-.692-.084-.851a1 1 0 0 0-.255-.44q-.322-.32-1.16-.424-.836-.106-3.088-.106-2.02 0-3.046.09-1.027.09-1.398.293-.406.226-.54.69-.13.466-.122 1.635.006.855.054 1.29.322-.365.574-.537a2.3 2.3 0 0 1 .672-.28q.91-.25 3.483-.25 2.849.001 3.913.09c.71.063 1.244.183 1.599.371q.662.355.927.988.256.609.262 1.483.01 1.32-.507 2.073-.489.723-1.754.962-1.266.236-4.611.236-2.737 0-3.721-.16-.989-.155-1.574-.683a2.26 2.26 0 0 1-.71-1.291q-.148-.786-.166-3.302-.013-1.905.12-2.661.133-.757.564-1.201.588-.61 1.788-.826 1.201-.212 4.06-.213 2.398 0 3.379.09.984.089 1.568.368.697.33 1.003.843.311.516.316 1.363zm-5.622 2.314q-2.331.001-3.398.083-1.07.084-1.434.295-.7.406-.692 1.456.01 1.312.854 1.645.82.317 4.027.317 3.6 0 4.32-.394.632-.345.623-1.62-.005-.605-.159-.949a1.05 1.05 0 0 0-.496-.516q-.313-.167-1.14-.237-.826-.073-2.505-.08m7.523 2.037h1.536q.005.58.107.877.103.297.357.476c.25.182.61.3 1.085.362q.708.09 2.412.09c1.629 0 2.835-.033 3.627-.097q1.188-.097 1.662-.348a.97.97 0 0 0 .447-.432q.14-.274.205-.884a17 17 0 0 0 .06-2.304q-.336.486-1.02.786-.477.212-1.354.288-.875.075-2.814.075-2.329 0-3.332-.082-1.005-.085-1.616-.332a1.83 1.83 0 0 1-.983-.941q-.322-.671-.33-1.8-.009-1.211.378-1.86.3-.488.849-.745.548-.255 1.54-.36 1.413-.144 3.549-.144 2.919 0 4.302.218 1.042.165 1.691.82.41.415.554 1.178.145.764.159 2.562.021 2.874-.276 3.77-.264.834-.964 1.206-.705.374-2.185.486-1.33.096-4.232.097-2.257 0-3.202-.162-.945-.161-1.52-.643a1.65 1.65 0 0 1-.531-.763q-.137-.433-.161-1.394m7.391-6.172q-3.324 0-4.451.157-.754.114-1.044.473-.287.362-.282 1.194.011 1.284.525 1.643.359.254 1.219.324.863.065 3.746.066c1.086 0 1.857-.023 2.323-.072q.693-.07 1.128-.28.466-.231.651-.563.184-.33.18-.938-.007-.833-.272-1.235-.27-.4-.933-.566-.763-.204-2.79-.203m7.736-1.188h12.636l.009 1.173H166.82l.022 2.988q.43-.506.944-.656.814-.25 3.668-.25 2.582.001 3.848.145 1.267.142 1.87.504.62.376.9 1.054.276.679.286 1.839.01 1.379-.385 2.1-.334.619-.892.916c-.373.198-.885.33-1.54.388q-.653.053-3.956.121-3.022-.045-3.575-.072a7.5 7.5 0 0 1-1.134-.146 2.1 2.1 0 0 1-1.416-.967 2 2 0 0 1-.287-.718q-.077-.392-.11-1.337h1.48q.022.702.099.988a1 1 0 0 0 .276.475q.23.228.596.332.367.107 1.08.167.969.075 2.745.075 3.858 0 4.667-.309.426-.157.609-.666t.176-1.496q-.006-.857-.205-1.286-.2-.433-.7-.663-.4-.182-1.401-.25c-.67-.044-1.777-.067-3.329-.067q-3.206 0-3.91.38-.327.175-.395.638h-1.53Zm27.474 3.009h-1.548c-.015-.409-.04-.692-.084-.851a1 1 0 0 0-.255-.44q-.322-.32-1.16-.424-.837-.106-3.088-.106-2.02 0-3.046.09-1.027.09-1.398.293-.406.226-.54.69-.13.466-.122 1.635.006.855.054 1.29.321-.365.574-.537a2.3 2.3 0 0 1 .672-.28q.91-.25 3.483-.25 2.848.001 3.913.09c.71.063 1.244.183 1.599.371q.662.355.926.988.257.609.263 1.483.01 1.32-.507 2.073-.488.723-1.755.962-1.265.236-4.61.236-2.737 0-3.721-.16-.989-.155-1.574-.683a2.26 2.26 0 0 1-.71-1.291q-.148-.786-.166-3.302-.013-1.905.12-2.661.133-.757.564-1.201.588-.61 1.788-.826 1.201-.212 4.06-.213 2.398 0 3.379.09.984.089 1.568.368.697.33 1.003.843.31.516.316 1.363zm-5.622 2.314q-2.331.001-3.398.083-1.07.084-1.434.295-.7.406-.692 1.456.01 1.312.854 1.645.82.317 4.028.317 3.6 0 4.319-.394.633-.345.622-1.62-.003-.605-.158-.949a1.05 1.05 0 0 0-.496-.516q-.313-.167-1.14-.237-.827-.073-2.505-.08m12.28-5.323h2.643l.075 10.291h-1.53l-.066-8.995h-.555l-3.794 3.112-.962-.918Zm6.317 6.789h1.566q.012.309.012.41.006.852.163 1.207c.109.24.306.399.597.487q.304.096 1.689.161 1.384.066 3.053.065 1.32 0 2.45-.067 1.126-.07 1.446-.16a.87.87 0 0 0 .578-.493q.161-.366.157-1.19-.005-.664-.191-.965-.184-.303-.674-.463-.183-.058-1.033-.12a22 22 0 0 0-1.468-.06h-3.355l-.009-1.173h3.797q1.77 0 2.28-.283.504-.28.497-1.265-.005-.662-.2-1.008-.193-.346-.63-.473-.734-.21-4.053-.21-3.808 0-4.491.303a.77.77 0 0 0-.4.424q-.11.283-.104.936l.022.558h-1.616q.012-1.361.164-1.9.148-.54.595-.88c.24-.18.5-.311.79-.39q.435-.12 1.259-.173 1.21-.081 3.808-.082 2.603 0 3.712.105 1.107.106 1.658.406.585.323.815.793t.236 1.373q.009 1.15-.26 1.579-.268.427-1.192.766.927.211 1.266.712.337.503.345 1.692.008 1.313-.446 1.878-.344.431-.862.642-.513.21-1.383.294-1.117.096-3.76.097-3.63 0-4.858-.195a2.66 2.66 0 0 1-1.148-.476q-.49-.364-.632-.861-.179-.598-.19-2.001m19.786-6.789h2.643l.075 10.291h-1.53l-.066-8.995h-.555l-3.795 3.112-.961-.918Zm36.944 5.632h-5.072l-.007-.972h5.072l-.03-4.166h1.121l.03 4.166h5.072l.007.972h-5.072l.03 4.166h-1.12Zm8.705 1.157h1.566q.012.309.012.41.006.852.163 1.207c.109.24.306.399.597.487q.304.096 1.689.161 1.384.066 3.053.065 1.32 0 2.45-.067 1.126-.07 1.446-.16a.87.87 0 0 0 .578-.493q.163-.366.157-1.19-.005-.664-.191-.965-.184-.303-.674-.463-.183-.058-1.033-.12a22 22 0 0 0-1.468-.06h-3.355l-.009-1.173h3.797q1.77 0 2.28-.283.504-.28.497-1.265-.006-.662-.2-1.008t-.63-.473q-.734-.21-4.053-.21-3.808 0-4.491.303a.77.77 0 0 0-.4.424q-.11.283-.103.936l.021.558h-1.616q.012-1.361.164-1.9.148-.54.596-.88c.239-.18.499-.311.789-.39q.435-.12 1.26-.173 1.209-.081 3.807-.082 2.604 0 3.712.105 1.109.106 1.658.406.585.323.815.793t.236 1.373q.009 1.15-.259 1.579-.269.427-1.193.766.928.211 1.266.712.337.503.345 1.692.008 1.313-.446 1.878-.344.431-.862.642-.513.21-1.383.294-1.117.096-3.76.097-3.629 0-4.858-.195a2.66 2.66 0 0 1-1.148-.476q-.49-.364-.632-.861-.179-.598-.19-2.001m14.898.57h1.536q.006.58.107.878.103.297.357.476c.25.182.61.3 1.085.362q.709.09 2.413.09 2.44 0 3.626-.097 1.188-.097 1.662-.348a.97.97 0 0 0 .448-.432q.139-.274.204-.884a17 17 0 0 0 .06-2.304q-.336.486-1.02.786-.477.212-1.354.288-.875.075-2.814.075-2.329 0-3.332-.082-1.005-.085-1.616-.332a1.83 1.83 0 0 1-.983-.941q-.322-.671-.33-1.8-.009-1.211.378-1.86.3-.488.849-.745.549-.255 1.54-.36 1.413-.144 3.549-.144 2.919 0 4.303.218 1.041.165 1.69.82c.272.276.46.67.555 1.178q.145.764.158 2.562.021 2.874-.276 3.77-.264.834-.963 1.206-.705.374-2.186.486-1.33.096-4.232.097-2.257 0-3.202-.162-.944-.161-1.52-.643a1.65 1.65 0 0 1-.53-.763q-.138-.433-.162-1.394m7.391-6.17q-3.322-.002-4.45.156c-.505.075-.85.234-1.044.473q-.288.362-.282 1.194.01 1.284.525 1.643.358.254 1.218.324.864.065 3.747.066c1.086 0 1.856-.023 2.322-.072q.694-.07 1.128-.28.466-.231.652-.563.184-.33.18-.938-.007-.833-.273-1.235-.27-.4-.933-.566-.764-.204-2.79-.203M300.833 88.177h1.566q.012.309.012.41.006.852.163 1.207c.109.24.306.399.597.487q.304.096 1.689.161 1.384.066 3.053.065 1.32 0 2.45-.067 1.126-.07 1.446-.16a.87.87 0 0 0 .577-.493q.163-.366.158-1.19-.005-.664-.191-.965-.184-.303-.674-.463-.183-.058-1.033-.12a22 22 0 0 0-1.468-.06h-3.355l-.009-1.173h3.797q1.77 0 2.28-.283.504-.28.497-1.265-.005-.662-.2-1.008-.194-.346-.63-.473-.734-.21-4.053-.21-3.81 0-4.491.303a.77.77 0 0 0-.4.424q-.11.283-.103.936l.021.558h-1.616q.012-1.361.164-1.9.148-.54.596-.88c.239-.18.499-.311.789-.39q.435-.12 1.259-.173 1.21-.081 3.808-.082 2.604 0 3.712.105 1.107.106 1.658.406.585.323.815.793t.236 1.373q.009 1.15-.259 1.579-.269.427-1.193.766.928.211 1.266.712.337.503.345 1.692.008 1.313-.447 1.878a2.1 2.1 0 0 1-.861.642q-.513.21-1.383.294-1.117.096-3.76.097-3.63 0-4.858-.195a2.66 2.66 0 0 1-1.148-.476q-.49-.364-.632-.861-.179-.598-.19-2.001m14.898.57h1.536q.006.58.107.878.103.297.357.476c.25.182.61.3 1.085.362q.708.09 2.413.09 2.44 0 3.626-.097 1.187-.097 1.662-.348a.97.97 0 0 0 .448-.432q.139-.274.204-.884a17 17 0 0 0 .06-2.304q-.336.486-1.02.786-.477.212-1.354.288-.875.075-2.814.075-2.329 0-3.332-.082-1.005-.085-1.616-.332a1.83 1.83 0 0 1-.983-.941q-.322-.671-.33-1.8-.009-1.211.378-1.86.3-.488.849-.745.549-.255 1.54-.36 1.413-.144 3.549-.144 2.919 0 4.303.218 1.04.165 1.69.82c.272.276.46.67.555 1.178q.145.764.158 2.562.021 2.874-.276 3.77-.264.834-.963 1.206-.705.374-2.186.486-1.33.096-4.232.097-2.257 0-3.202-.162-.945-.161-1.52-.643a1.64 1.64 0 0 1-.53-.763q-.138-.433-.162-1.394m7.391-6.17q-3.322-.002-4.45.156c-.505.075-.85.234-1.045.473q-.287.362-.281 1.194.01 1.284.524 1.643.359.254 1.219.324.864.065 3.747.066c1.085 0 1.856-.023 2.322-.072q.693-.07 1.128-.28.466-.231.651-.563.185-.33.18-.938-.007-.833-.272-1.235-.27-.4-.933-.566-.763-.204-2.79-.203m7.379 5.6h1.566q.012.309.012.41.006.852.163 1.207c.109.24.306.399.597.487q.304.096 1.689.161 1.384.066 3.052.065 1.322 0 2.45-.067 1.126-.07 1.447-.16a.87.87 0 0 0 .577-.493q.163-.366.158-1.19-.005-.664-.191-.965-.184-.303-.674-.463-.183-.058-1.033-.12a22 22 0 0 0-1.468-.06h-3.356l-.008-1.173h3.797q1.77 0 2.28-.283.504-.28.497-1.265-.005-.662-.2-1.008-.193-.346-.63-.473-.734-.21-4.053-.21-3.809 0-4.492.303a.77.77 0 0 0-.4.424q-.108.283-.103.936l.022.558h-1.616q.012-1.361.164-1.9.148-.54.595-.88c.24-.18.5-.311.79-.39q.435-.12 1.259-.173 1.21-.081 3.808-.082 2.603 0 3.712.105 1.108.106 1.658.406.585.323.815.793t.236 1.373q.009 1.15-.259 1.579-.269.427-1.193.766.928.211 1.266.712.337.503.345 1.692.008 1.313-.447 1.878-.343.431-.861.642-.513.21-1.383.294-1.116.096-3.76.097-3.63 0-4.858-.195a2.66 2.66 0 0 1-1.148-.476q-.49-.364-.632-.861-.179-.598-.19-2.001m25.523-6.789h2.643l.074 10.291h-1.53l-.065-8.995h-.555l-3.795 3.112-.962-.918Zm6.38 7.36h1.536q.006.58.108.877c.07.198.186.357.356.476.25.182.61.3 1.085.362q.709.09 2.413.09 2.44 0 3.627-.097t1.661-.348a.97.97 0 0 0 .448-.432q.14-.274.204-.884a17 17 0 0 0 .06-2.304q-.336.486-1.02.786-.477.212-1.353.288t-2.815.075q-2.328 0-3.332-.082-1.004-.085-1.616-.332a1.83 1.83 0 0 1-.983-.941q-.32-.671-.33-1.8-.009-1.211.378-1.86.299-.488.85-.745.548-.255 1.539-.36 1.413-.144 3.55-.144 2.917 0 4.302.218 1.042.165 1.69.82.411.415.555 1.178.145.764.158 2.562.02 2.874-.275 3.77-.265.834-.964 1.206-.705.374-2.186.486-1.33.096-4.232.097-2.257 0-3.202-.162-.944-.161-1.52-.643a1.64 1.64 0 0 1-.53-.763q-.137-.433-.162-1.394m7.392-6.172q-3.323 0-4.452.157-.754.114-1.043.473-.287.362-.282 1.194.01 1.284.525 1.643.359.254 1.218.324.864.065 3.747.066c1.086 0 1.857-.023 2.322-.072q.694-.07 1.128-.28.466-.231.652-.563.185-.33.18-.938-.007-.833-.273-1.235-.27-.4-.933-.566-.763-.204-2.79-.203m12.33-1.188h2.643l.075 10.291h-1.53l-.066-8.995h-.555l-3.794 3.112-.962-.918Zm11.453 0h2.643l.075 10.291h-1.53l-.066-8.995h-.555l-3.795 3.112-.961-.918Zm6.241 0h13.099l.014 1.996-8.405 8.295h-2.07l8.888-8.748-.002-.37h-11.515Zm21.099-.015q3.51 0 4.898.242 1.221.216 1.782 1.054.297.435.424 1.252.126.817.14 2.376.015 2.078-.22 3.261-.25 1.256-1.273 1.677-.59.25-1.907.362-1.32.113-3.567.113-3.04 0-4.44-.293-1.74-.377-2.02-2.057-.173-.99-.187-2.793-.015-2.025.247-3.163.32-1.407 1.794-1.746 1.249-.285 4.329-.285m.07 1.203q-2.096 0-3.048.108-.95.111-1.27.38-.371.334-.493 1.485-.105 1.033-.097 2.162.02 2.733.59 3.23.627.566 4.48.566 2.313 0 3.437-.124 1.126-.126 1.453-.411.614-.537.594-3.186-.012-1.62-.151-2.507-.145-.89-.433-1.168-.385-.361-1.697-.452-1.095-.082-3.364-.083m22.129 5.77.008 1.173h-2.117l.015 2.16h-1.53l-.016-2.16h-10.091l-.017-2.373 8.839-5.758h2.74l.051 6.959Zm-3.648 0-.042-5.785h-.67l-7.853 5.205.004.58ZM88.17 106.382h1.895l4.246 7.98h.17l3.189-7.98h2.689l3.34 7.98h.193l4.084-7.98h1.964l-4.927 9.33h-2.53l-3.373-7.94h-.159l-3.224 7.94h-2.506Zm21.158 0h1.894l4.246 7.98h.17l3.189-7.98h2.689l3.34 7.98h.193l4.083-7.98h1.965l-4.927 9.33h-2.53l-3.373-7.94h-.16l-3.223 7.94h-2.506Zm21.156 0h1.895l4.246 7.98h.17l3.189-7.98h2.689l3.339 7.98h.194l4.083-7.98h1.965l-4.927 9.33h-2.53l-3.373-7.94h-.16l-3.223 7.94h-2.506Zm21.607 7.073h2.511l.016 2.257h-2.51Zm16.504-1.108h1.736q-.022 1.699-.877 2.475-.623.569-1.68.79-1.06.22-3.147.221-2.789 0-4.132-.178-1.339-.176-2.058-.638-1.583-1.034-1.605-3.947-.014-2.055.66-3.086.66-1.007 1.919-1.364 1.254-.358 4.127-.36 2.587 0 3.845.232 1.263.23 1.924.81.466.413.685.957.213.545.262 1.448h-1.778q-.046-1.32-1.008-1.737-.962-.419-3.924-.42-2.906 0-3.797.514c-.394.222-.674.581-.848 1.079q-.263.745-.253 2.038.01 1.221.335 1.928.331.704 1.027 1.011.956.423 4.28.423 2.62 0 3.44-.42.819-.417.867-1.776m9.572-6.086q2.546-.001 3.756.134 1.21.131 1.894.484 1.026.534 1.49 1.511c.308.652.465 1.542.473 2.66.01 1.246-.166 2.197-.526 2.845-.26.49-.613.877-1.053 1.152q-.66.413-1.74.598-1.042.187-3.477.188-2.295.001-3.464-.134-1.174-.13-1.902-.477-1.085-.5-1.556-1.478-.473-.983-.485-2.74-.013-1.97.648-2.983a3.27 3.27 0 0 1 1.877-1.398q1.2-.353 4.065-.362m.281 1.29c-1.128 0-1.984.037-2.556.107-.577.074-1.033.205-1.377.396-.397.222-.69.578-.868 1.058q-.266.727-.256 1.979.01 1.42.38 2.126.369.704 1.258 1 .98.327 3.81.326c1.228 0 2.135-.04 2.712-.117q.87-.12 1.38-.444.566-.347.806-1.037.239-.691.23-1.942c-.008-.987-.14-1.71-.404-2.17q-.436-.77-1.444-1.027t-3.671-.256m8.91-1.17h1.697l.01 1.408h.124q.54-.898 1.653-1.213 1.12-.316 3.775-.315c1.542 0 2.69.074 3.434.221q1.118.22 1.761.803.5.46.706 1.156.203.693.212 2.001l.038 5.27h-1.697l-.034-4.642q-.008-1.25-.132-1.8a1.9 1.9 0 0 0-.488-.92q-.439-.434-1.33-.618-.89-.181-2.662-.182-1.975 0-3.078.252-1.097.25-1.652.823a2 2 0 0 0-.497.93q-.117.52-.107 1.841l.031 4.316h-1.696Zm26.694 5.966h1.735q-.022 1.699-.877 2.475-.623.569-1.68.79-1.06.22-3.147.221-2.79 0-4.131-.178-1.34-.176-2.059-.638-1.582-1.034-1.605-3.947-.014-2.055.66-3.086.66-1.007 1.92-1.364c.834-.238 2.213-.36 4.126-.36q2.587 0 3.845.232 1.263.23 1.924.81.467.413.685.957.214.545.262 1.448h-1.778q-.046-1.32-1.008-1.737-.961-.419-3.924-.42-2.906 0-3.797.514-.588.332-.848 1.079-.263.745-.253 2.038.01 1.221.335 1.928.333.704 1.027 1.011.956.423 4.28.423 2.62 0 3.441-.42.818-.417.867-1.776m5.064-3.164h-1.77a5 5 0 0 1-.027-.407q-.012-1.469 1.256-2.001 1.268-.534 4.766-.535 2.748.002 3.953.219 1.203.216 1.893.826c.378.33.628.716.744 1.166q.174.668.188 2.344l.035 4.917h-1.697l.027-1.091h-.092c-.42.514-.924.843-1.52.99q-.886.222-3.361.222-2.825 0-3.93-.117c-.732-.081-1.291-.242-1.669-.494q-.572-.353-.796-.843c-.15-.33-.227-.786-.231-1.377q-.006-1.083.32-1.663.334-.58 1.126-.863.858-.327 4.027-.326 3.311 0 4.337.172 1.021.17 1.582.829h.147l-.007-1.004q-.008-1.24-.524-1.784-.459-.488-1.384-.658-.925-.175-3.027-.175-2.761 0-3.566.283-.812.286-.805 1.239c0 .033.005.077.005.13m4.379 2.277q-2.103-.001-2.944.064t-1.192.242q-.666.342-.661 1.27.006.915.803 1.242.652.266 4.365.265 2.72.001 3.589-.305.874-.306.867-1.243-.007-.903-.986-1.22c-.652-.21-1.935-.315-3.841-.315m8.366-5.078h1.697l.01 1.256h.111c.265-.42.665-.753 1.21-.994q.486-.218 1.287-.3.802-.083 2.394-.083t2.372.151q.781.156 1.337.557 1.098.816 1.112 2.644l.007.96h-1.744l-.004-.668q-.005-.776-.13-1.176a1.3 1.3 0 0 0-.43-.654q-.655-.525-2.7-.525c-2.054 0-3.373.232-3.947.696-.578.46-.86 1.515-.849 3.154l.032 4.312h-1.697Zm12.692 0h1.697l.067 9.33h-1.697Zm-.03-4.111h1.697l.013 1.753h-1.697Zm3.683 4.11h1.72l.01 1.23q.8-.846 1.61-1.098.819-.252 2.788-.252 2.641-.001 3.796.336 1.151.332 1.791 1.29.516-.918 1.606-1.27 1.084-.357 3.403-.356 2.204-.001 3.299.245 1.1.247 1.785.886.527.51.69 1.146t.175 2.267l.036 4.907h-1.697l-.038-5.25q-.014-1.727-.609-2.23-.796-.68-3.64-.682-1.625 0-2.477.189-.852.184-1.29.63-.444.453-.595 1.207-.153.755-.141 2.459l.026 3.677h-1.697l-.038-5.25q-.007-.998-.134-1.47a1.43 1.43 0 0 0-.47-.75c-.558-.46-1.776-.692-3.663-.692q-1.635 0-2.513.192t-1.351.655q-.407.406-.53 1.105-.128.7-.114 2.533l.027 3.677h-1.697Zm30.819-.12q2.545-.001 3.755.134 1.21.131 1.894.484 1.026.534 1.49 1.511c.308.652.465 1.542.473 2.66.01 1.246-.166 2.197-.525 2.845-.26.49-.614.877-1.054 1.152q-.659.413-1.739.598-1.043.187-3.477.188-2.295.001-3.465-.134-1.174-.13-1.902-.477-1.084-.5-1.556-1.478-.472-.983-.485-2.74-.014-1.97.649-2.983a3.27 3.27 0 0 1 1.876-1.398q1.2-.353 4.066-.362m.28 1.29c-1.127 0-1.983.037-2.556.107-.577.074-1.033.205-1.377.396-.397.222-.689.578-.868 1.058q-.266.727-.256 1.979.01 1.42.38 2.126.369.704 1.258 1 .98.327 3.81.326 1.845 0 2.712-.117.87-.12 1.38-.444.567-.347.806-1.037.24-.691.23-1.942-.01-1.48-.403-2.17-.437-.77-1.445-1.027t-3.67-.256m8.91-1.17h1.697l.01 1.257h.112c.264-.42.664-.753 1.209-.994q.486-.218 1.288-.3.801-.083 2.394-.083 1.591 0 2.371.151.781.156 1.337.557 1.099.816 1.112 2.644l.007.96h-1.743l-.005-.668q-.005-.776-.129-1.176a1.3 1.3 0 0 0-.43-.654q-.655-.525-2.701-.525c-2.054 0-3.373.232-3.947.696-.578.46-.86 1.515-.849 3.154l.032 4.312h-1.697Zm24.334 5.966h1.736q-.022 1.699-.877 2.475-.623.569-1.68.79-1.061.22-3.148.221-2.788 0-4.13-.178-1.34-.176-2.059-.638-1.582-1.034-1.605-3.947-.014-2.055.66-3.086.66-1.007 1.919-1.364 1.254-.358 4.127-.36 2.587 0 3.845.232 1.263.23 1.924.81.465.413.685.957.213.545.262 1.448h-1.779q-.044-1.32-1.008-1.737-.96-.419-3.923-.42-2.906 0-3.798.514c-.393.222-.673.581-.848 1.079q-.261.745-.252 2.038.01 1.221.335 1.928.331.704 1.027 1.011.956.423 4.28.423 2.62 0 3.44-.42.818-.417.867-1.776m3.256-10.076h1.697l.04 5.491h.135q.54-.87 1.684-1.189c.766-.208 2.024-.312 3.783-.312q2.225 0 3.376.225c.764.15 1.36.413 1.776.786q.551.493.738 1.209.185.72.199 2.381l.035 4.85h-1.697l-.032-4.39q-.01-1.447-.127-2.008a1.95 1.95 0 0 0-.499-.957q-.41-.442-1.317-.625c-.602-.12-1.49-.182-2.656-.182q-1.964 0-3.066.242-1.103.24-1.656.783a1.94 1.94 0 0 0-.54.917c-.08.336-.117.943-.11 1.83l.031 4.39h-1.697Zm15.24 4.11h1.697l.067 9.331h-1.697Zm-.03-4.11h1.697l.012 1.753h-1.696Zm4.362 11.184h2.51l.017 2.257h-2.51Zm16.504-1.108h1.736q-.023 1.699-.877 2.475-.624.569-1.68.79-1.062.22-3.148.221-2.79 0-4.131-.178-1.34-.176-2.058-.638-1.583-1.034-1.606-3.947-.014-2.055.66-3.086.66-1.007 1.92-1.364c.834-.238 2.213-.36 4.127-.36q2.586 0 3.845.232 1.262.23 1.923.81.468.413.685.957.214.545.263 1.448h-1.779q-.046-1.32-1.008-1.737-.96-.419-3.924-.42-2.905 0-3.797.514-.587.332-.848 1.079-.262.745-.253 2.038.01 1.221.336 1.928.332.704 1.026 1.011.957.423 4.28.423 2.62 0 3.441-.42.818-.417.867-1.776m9.572-6.086q2.545-.001 3.755.134 1.21.131 1.894.484 1.026.534 1.49 1.511c.308.652.466 1.542.474 2.66.009 1.246-.167 2.197-.526 2.845-.26.49-.614.877-1.053 1.152q-.66.413-1.74.598-1.043.187-3.477.188-2.295.001-3.465-.134-1.174-.13-1.902-.477-1.084-.5-1.556-1.478-.471-.983-.485-2.74-.014-1.97.65-2.983a3.27 3.27 0 0 1 1.876-1.398q1.2-.353 4.065-.362m.28 1.29c-1.127 0-1.983.037-2.556.107q-.863.11-1.376.396c-.397.222-.69.578-.868 1.058q-.267.727-.257 1.979.01 1.42.38 2.126.369.704 1.258 1 .98.327 3.81.326 1.845 0 2.712-.117.87-.12 1.38-.444.567-.347.806-1.037.24-.691.23-1.942-.01-1.48-.403-2.17-.437-.77-1.445-1.027t-3.67-.256m8.91-1.17h1.72l.01 1.23q.8-.846 1.61-1.098.819-.252 2.788-.252 2.641-.001 3.796.336 1.152.332 1.791 1.29.517-.918 1.606-1.27 1.084-.357 3.403-.356 2.204-.001 3.299.245 1.1.247 1.785.886.527.51.69 1.146t.175 2.267l.036 4.907h-1.697l-.038-5.25q-.012-1.727-.61-2.23-.795-.68-3.638-.682-1.627 0-2.478.189-.853.184-1.29.63-.444.453-.595 1.207-.153.755-.141 2.459l.026 3.677h-1.696l-.038-5.25q-.009-.998-.135-1.47a1.43 1.43 0 0 0-.47-.75c-.558-.46-1.776-.692-3.663-.692-1.088 0-1.929.064-2.513.192q-.877.192-1.351.655-.406.406-.53 1.105-.128.7-.114 2.533l.027 3.677h-1.697ZM309.993 61.638h154.72l-.498 7.117H17.177l.136-.671.45-6.446Z"/><path fill="#fff" fill-rule="evenodd" d="M17.9 68.164h444.785l1.203-5.934H19.103Z"/><path fill="#00662b" fill-rule="evenodd" d="M17.9 68.164h153.535l.415-5.934H18.315Z"/><path fill="red" fill-rule="evenodd" d="M310.128 68.164h153.535l.416-5.934H310.544Z"/><path fill="#fff" fill-rule="evenodd" d="M189.386 47.972c4.592 0 4.447.454 4.824-.938l2.454-8.2h26.826l-2.629 9.138c4.619 0 4.447.37 4.788-.789.117-.392.2-.79.357-1.301l3.6-12.011c1.195-4.089 3.017-8.007-.059-11.367-1.01-1.104-2.908-1.948-5.116-1.948h-17.86c-2.8 0-5.955 1.669-7.57 3.113-2.125 1.898-3.383 3.566-4.334 6.81-.921 3.138-4.195 14.45-5.28 17.493m-128.12-11.63c-.277 2.234-.218 3.575.478 5.486.503 1.381 1.14 2.28 2.12 3.286 1.774 1.824 4.46 2.858 8.244 2.858h12.12c6.018 0 11.237-2.983 14.587-6.858.728-.84 1.302-1.574 1.913-2.557 3.548-5.71 3.762-12.255-.744-15.842-1.56-1.243-3.65-2.159-6.043-2.159H78.666c-4.84 0-10.002 3.238-13.279 7.023-1.97 2.279-3.725 5.567-4.121 8.762m11.087 6.978c-2.732 0-4.838-1.507-5.719-3.185-3.24-6.158 3.842-15.093 11.642-15.093h13.282c6.454 0 9.184 5.917 5.303 12.132-2.047 3.278-6.227 6.146-10.394 6.146Zm33.436 4.652h4.648c.132-1.06.487-1.912.787-2.895.318-1.04.541-1.817.85-2.824.61-2.004 1.065-3.678 1.674-5.676.598-1.961 1.12-3.657 1.698-5.648.37-1.276 1.51-4.713 1.635-5.72l16.33 19.899c1.792 2.24 2.743 3.45 5.929 2.501 4.51-1.343 4.943-6.517 6.448-11.225.819-2.562 1.518-5.219 2.364-7.923.424-1.351.836-2.685 1.203-3.94.37-1.266.932-2.781 1.177-3.965h-4.648l-6.79 22.597-17.935-21.723c-2.169-1.95-6.528-.65-8.264 3.169-.795 1.75-6.67 22.648-7.106 23.373m-88.733-11.63c-.279 2.234-.186 3.537.48 5.482 1.36 3.97 5.4 6.148 10.196 6.148H50.81c.189-1.524 1.052-3.128 1.241-4.652H28.143c-8.437 0-9.127-12.295 1.362-17.228 1.273-.599 2.838-1.05 4.56-1.05H57.64c.084-.58 1.182-4.147 1.386-4.486H45.082c-3.744 0-10.584-.433-13.565.436-3.245.946-5.688 2.35-8.245 4.43-.415.338-.52.584-.958.99-2.219 2.066-4.765 5.95-5.258 9.93m132.348 0c-.87 7.002 3.385 11.63 10.676 11.63h23.077c.19-1.524 1.053-3.128 1.242-4.652h-23.908c-7.57 0-8.665-9.645-2.073-15.081 2.236-1.846 5.106-3.197 7.994-3.197h23.577c.084-.58 1.182-4.147 1.386-4.486H177.43c-9.555 0-14.22-1.308-21.808 4.866-.416.338-.52.584-.959.99-2.218 2.066-4.764 5.95-5.258 9.93m120.835 3.152h.62c2.124 0 3.05.132 4.689-.59 4.139-1.823 7.072-7.556 3.477-10.3-.357-.272-.883-.48-1.357-.609-1.23-.332-18.783-.13-21.14-.13l-4.77 15.128c-.51 1.667-1.019 3.436-1.595 4.983 3.902 0 3.163.414 3.795-1.469.13-.384.296-.95.434-1.404l1.742-5.609h10.608l5.497 8.482 3.828.011Zm35.738 5.063c2.122 0 3.262-1.61 4.513-2.703l11.286-10.569-5.204 16.691c4.046 0 3.118.679 4.031-2.308l3.16-10.004c.27-.894.523-1.633.806-2.562.219-.719.603-1.654.72-2.5.22-1.574-.795-2.737-2.214-2.737-1.88 0-2.447.581-3.538 1.609-.176.165-.284.247-.469.409-.327.285-.642.53-.925.833l-7.49 7.032c-.396.368-.512.577-.952.96-.92.804-2.251 2.277-2.835 2.428-.059-.458-.542-1.367-.743-1.87l-4.656-10.553c-1.188-1.496-3.886-.893-5.263.654-1.168 1.313-1.386 2.592-1.98 4.535-.93 3.043-3.448 11.396-4.446 14.074 3.848 0 3.252.3 3.603-.896l4.178-13.274c.256-.833.566-1.538.685-2.383.473.13.387.315.6.792l3.501 7.968c1.074 2.462 1.359 4.374 3.631 4.374m37.936 3.42c2.161 0 3.325-.353 5.228-1.075 1.306-.496 2.911-1.562 3.91-2.449 1.29-1.14 2.151-2.052 3.107-3.544 2.23-3.483 2.75-7.913.323-10.687-1.246-1.423-3.246-2.357-5.381-2.357h-10.8c-4.123 0-8.954 3.202-11.191 6.703-2.417 3.784-3.008 8.255-.184 11.325.473.515 1.675 1.256 2.368 1.521 2.38.912 9.486.562 12.62.562m-13.385-8.893c.604-4.314 4.916-7.935 9.997-7.935H349c5.65 0 7.02 4.573 4.11 9.077-1.474 2.282-4.62 4.33-7.352 4.33h-10.8c-2.668 0-4.857-2.412-4.43-5.472m104.93-11.219h-3.28l-1.616 5.12c-.98 3.196-3.772 12.362-4.752 14.991.603 0 3.007.153 3.315-.12l1.795-5.547c.27-.883.73-2.006.861-2.815h19.244c-.114.822-1.557 5.159-1.923 6.352-.225.734-.533 1.434-.63 2.13h3.418c.15-1.072 4.8-15.348 5.491-17.63.21-.69.638-1.757.74-2.48h-3.419c-.117.838-1.548 5.128-1.924 6.351-.206.671-.514 1.401-.61 1.993h-19.245Zm-10.8 3.284c.12-.85.72-2.516 1.006-3.284h-10.116c-2.803 0-7.562-.306-9.86.298-2.936.772-6.324 2.796-8.155 5.304-1.948 2.668-2.396 3.491-2.864 6.848-.315 2.252.805 4.634 1.949 5.61 1.777 1.516 3.142 2.064 6.002 2.052 5.56-.024 11.12 0 16.678 0 .215-.965.92-2.665 1.025-3.42h-17.498c-5.512 0-6.52-6.933-.903-11.39 1.825-1.45 3.929-2.018 6.195-2.018ZM281.712 47.976c.603 0 3.007.153 3.315-.12l6.333-19.99h-3.28l-1.616 5.12c-.98 3.195-3.772 12.361-4.752 14.99m173.8 0c.603 0 3.007.153 3.316-.12l6.153-19.99h-3.191l-1.615 5.12c-.979 3.195-3.683 12.361-4.663 14.99m-71.05-8.482h.513c2.124 0 3.05.132 4.688-.59 4.139-1.823 7.073-7.556 3.478-10.3-.357-.272-.883-.48-1.358-.609-1.229-.332-20.755-.13-23.11-.13l-4.771 15.128c-.51 1.667-1.02 3.436-1.596 4.983 3.902 0 3.164.414 3.795-1.469.13-.384.297-.95.435-1.404l1.741-5.609h12.689l5.39 8.482 3.826.011Zm-13.515-8.345h16.425c2.635-.001 4.118-.117 3.757 2.462-.13.934-1.61 2.6-3.508 2.6h-18.2Zm-112.143 0h14.453c2.635-.001 4.117-.117 3.757 2.462-.13.934-1.61 2.6-3.508 2.6h-16.23Zm-60.733 3.032c.667-1.866 1.113-4.657 2.148-6.085.889-1.226 2.936-2.888 4.778-2.888h18.358c1.744 0 3.297 1.526 3.074 3.324-.331 2.67-1.129 3.742-1.365 5.649Z"/><path fill="#0b2469" fill-rule="evenodd" d="M625.771 213.927h-5.072l-.007-.972h5.072l-.03-4.166h1.121l.03 4.166h5.073l.007.972h-5.073l.03 4.166h-1.12Zm8.705 1.157h1.566q.012.31.012.41.006.851.163 1.208c.11.24.306.398.597.486q.303.096 1.69.162 1.384.065 3.052.064a42 42 0 0 0 2.45-.067q1.126-.07 1.446-.159a.87.87 0 0 0 .578-.494q.161-.365.157-1.19-.006-.664-.191-.965-.183-.303-.674-.463-.182-.059-1.033-.12a22 22 0 0 0-1.468-.06h-3.355l-.009-1.172h3.797q1.77 0 2.279-.283.506-.282.498-1.265-.005-.662-.2-1.008-.193-.347-.63-.473-.734-.212-4.053-.211-3.808 0-4.491.303a.77.77 0 0 0-.4.424q-.11.283-.104.936l.022.559h-1.616q.012-1.361.164-1.9.148-.54.596-.88c.239-.18.499-.312.789-.391q.435-.12 1.259-.173 1.21-.082 3.808-.082 2.603 0 3.712.106 1.108.104 1.658.406.585.323.815.792t.236 1.373q.008 1.15-.259 1.58-.269.427-1.193.765.928.212 1.266.713.337.502.345 1.692.008 1.312-.446 1.877-.344.431-.862.643-.513.209-1.383.293-1.117.097-3.76.098-3.63 0-4.858-.196a2.7 2.7 0 0 1-1.148-.475q-.49-.364-.632-.862-.179-.597-.19-2m14.898.571h1.536q.005.58.108.877c.07.198.186.358.356.476.25.183.61.3 1.085.363q.708.09 2.413.09 2.44-.001 3.626-.098 1.188-.096 1.662-.347a.97.97 0 0 0 .448-.432q.139-.275.204-.885a17 17 0 0 0 .06-2.304q-.336.486-1.02.787-.477.211-1.354.288-.875.074-2.814.074-2.328 0-3.332-.082-1.005-.085-1.616-.331a1.83 1.83 0 0 1-.983-.942q-.322-.67-.33-1.8-.009-1.21.378-1.86.3-.487.849-.745.549-.255 1.54-.36 1.413-.143 3.55-.144 2.917 0 4.302.219 1.041.165 1.69.82.411.413.555 1.178t.158 2.561q.021 2.874-.276 3.77c-.176.555-.497.96-.963 1.206q-.705.374-2.186.486-1.33.097-4.232.098-2.256 0-3.202-.162-.944-.162-1.52-.643a1.64 1.64 0 0 1-.531-.764q-.137-.432-.161-1.394m7.391-6.171q-3.323 0-4.451.156-.754.114-1.043.474-.287.36-.282 1.193.01 1.284.524 1.643.36.255 1.219.324.864.066 3.747.067c1.086 0 1.856-.023 2.322-.072q.693-.071 1.128-.28.466-.232.651-.564.185-.33.18-.938-.007-.834-.273-1.234-.27-.401-.932-.566-.764-.203-2.79-.203m11.828 5.6h1.567l.012.41q.005.851.163 1.208c.108.24.305.398.597.486q.304.096 1.688.162 1.384.065 3.053.064 1.321 0 2.45-.067 1.126-.07 1.446-.159a.87.87 0 0 0 .578-.494q.162-.365.157-1.19-.006-.664-.19-.965-.185-.303-.674-.463-.183-.059-1.033-.12a22 22 0 0 0-1.469-.06h-3.355l-.009-1.172h3.797q1.77 0 2.28-.283.504-.282.498-1.265-.007-.662-.2-1.008-.194-.347-.63-.473-.734-.212-4.053-.211-3.81 0-4.492.303a.77.77 0 0 0-.4.424q-.108.283-.103.936l.022.559h-1.617q.012-1.361.164-1.9.148-.54.596-.88.357-.271.789-.391.436-.12 1.26-.173 1.209-.082 3.808-.082 2.603 0 3.71.106 1.11.104 1.66.406.585.323.814.792.23.47.236 1.373.009 1.15-.258 1.58-.27.427-1.193.765.927.212 1.266.713.336.502.344 1.692.009 1.312-.446 1.877-.344.431-.862.643-.513.209-1.383.293-1.117.097-3.76.098-3.629 0-4.858-.196a2.66 2.66 0 0 1-1.148-.475q-.489-.364-.632-.862-.178-.597-.19-2m14.834 0h1.567q.01.31.011.41.006.851.164 1.208c.108.24.305.398.597.486q.304.096 1.688.162 1.384.065 3.053.064 1.321 0 2.45-.067 1.126-.07 1.446-.159a.87.87 0 0 0 .578-.494q.162-.365.158-1.19-.007-.664-.192-.965-.184-.303-.673-.463-.183-.059-1.034-.12a22 22 0 0 0-1.468-.06h-3.355l-.009-1.172h3.797q1.77 0 2.28-.283.504-.282.497-1.265-.005-.662-.2-1.008-.193-.347-.63-.473-.735-.212-4.052-.211-3.81 0-4.492.303a.77.77 0 0 0-.4.424q-.109.283-.103.936l.021.559h-1.616q.012-1.361.164-1.9a1.6 1.6 0 0 1 .596-.88c.239-.18.499-.312.789-.391q.436-.12 1.26-.173 1.209-.082 3.808-.082 2.603 0 3.71.106 1.11.104 1.66.406.585.323.814.792.23.47.236 1.373.01 1.15-.259 1.58-.268.427-1.192.765.927.212 1.266.713.336.502.344 1.692.009 1.312-.446 1.877-.344.431-.862.643-.513.209-1.383.293-1.117.097-3.76.098-3.63 0-4.857-.196a2.66 2.66 0 0 1-1.149-.475q-.49-.364-.632-.862-.178-.597-.19-2m15.192-6.788h12.636l.008 1.172h-11.105l.021 2.988c.289-.337.601-.555.945-.655q.814-.25 3.667-.25c1.72 0 3.006.05 3.848.144q1.269.142 1.87.504.62.377.9 1.054.278.679.287 1.84c.006.917-.122 1.62-.386 2.1q-.333.618-.892.916-.557.298-1.54.388-.651.053-3.956.12-3.022-.044-3.574-.071a7.5 7.5 0 0 1-1.134-.147 2.1 2.1 0 0 1-1.416-.967 2 2 0 0 1-.287-.717q-.079-.393-.11-1.338h1.48q.022.703.099.988.075.288.276.476.23.227.595.331.367.108 1.081.168.968.074 2.745.074 3.858 0 4.666-.308.426-.158.61-.666.182-.51.175-1.497-.006-.856-.205-1.286-.198-.432-.699-.663-.401-.18-1.402-.25-1.003-.065-3.328-.066-3.207-.001-3.91.38-.327.175-.396.638h-1.53Zm31.923 3.008h-1.548q-.021-.612-.084-.85a1 1 0 0 0-.255-.44q-.322-.32-1.16-.425t-3.088-.105q-2.02 0-3.046.09-1.027.089-1.398.293-.407.225-.54.69-.13.465-.122 1.634.006.856.054 1.291.321-.367.574-.537.257-.17.671-.28.912-.25 3.484-.25 2.848 0 3.913.09 1.066.091 1.599.37.662.355.926.988.258.608.263 1.484.01 1.32-.507 2.072-.488.725-1.755.962-1.266.236-4.61.237-2.737 0-3.721-.16-.99-.156-1.575-.684a2.26 2.26 0 0 1-.709-1.29q-.148-.788-.166-3.303-.013-1.905.12-2.66.134-.758.564-1.202.587-.609 1.788-.825 1.201-.214 4.06-.214 2.398 0 3.378.09.984.09 1.57.368.696.33 1.002.843.31.517.316 1.363zm-5.622 2.315q-2.331 0-3.398.082-1.07.084-1.434.296-.7.406-.692 1.455.01 1.314.854 1.646.82.315 4.028.316 3.6 0 4.318-.393.634-.348.623-1.62-.004-.606-.158-.95a1.05 1.05 0 0 0-.496-.516q-.313-.166-1.14-.237-.827-.072-2.505-.08m7.522 2.036h1.537q.006.58.107.877.104.298.356.476c.251.183.61.3 1.086.363q.708.09 2.412.09 2.44-.001 3.627-.098 1.187-.096 1.662-.347a.97.97 0 0 0 .447-.432q.14-.275.204-.885a17 17 0 0 0 .06-2.304q-.334.486-1.02.787c-.316.141-.77.237-1.353.288q-.876.074-2.815.074-2.328 0-3.331-.082-1.005-.085-1.616-.331a1.83 1.83 0 0 1-.983-.942q-.322-.67-.33-1.8-.009-1.21.378-1.86.298-.487.849-.745.548-.255 1.539-.36 1.414-.143 3.55-.144 2.918 0 4.302.219 1.042.165 1.691.82.41.413.554 1.178t.159 2.561q.02 2.874-.276 3.77c-.177.555-.497.96-.964 1.206q-.705.374-2.185.486-1.331.097-4.233.098-2.257 0-3.201-.162t-1.52-.643a1.64 1.64 0 0 1-.531-.764q-.137-.432-.162-1.394m7.392-6.171q-3.323 0-4.451.156-.755.114-1.044.474-.287.36-.282 1.193.01 1.284.525 1.643.359.255 1.219.324.863.066 3.746.067c1.086 0 1.857-.023 2.322-.072q.695-.071 1.129-.28.466-.232.651-.564.185-.33.18-.938-.007-.834-.273-1.234-.27-.401-.932-.566-.764-.203-2.79-.203m7.736-1.188h12.636l.009 1.172h-11.106l.022 2.988c.288-.337.6-.555.944-.655q.814-.25 3.667-.25 2.583.002 3.849.144t1.869.504q.621.377.9 1.054.278.679.287 1.84c.007.917-.122 1.62-.385 2.1q-.334.618-.892.916-.559.298-1.54.388-.653.053-3.956.12-3.023-.044-3.575-.071a7.5 7.5 0 0 1-1.134-.147 2.1 2.1 0 0 1-1.416-.967 2 2 0 0 1-.287-.717q-.077-.393-.11-1.338h1.48q.022.703.099.988a1 1 0 0 0 .276.476q.23.227.596.331.367.108 1.08.168.968.074 2.745.074 3.858 0 4.666-.308.426-.158.61-.666.183-.51.176-1.497-.007-.856-.205-1.286-.2-.432-.7-.663-.4-.18-1.401-.25-1.004-.065-3.329-.066-3.206-.001-3.91.38-.327.175-.395.638h-1.53Zm27.474 3.008h-1.548q-.021-.612-.084-.85a1 1 0 0 0-.255-.44q-.322-.32-1.16-.425-.836-.105-3.089-.105-2.018 0-3.045.09-1.027.089-1.398.293-.407.225-.54.69-.131.465-.123 1.634.007.856.054 1.291.323-.367.575-.537a2.3 2.3 0 0 1 .671-.28q.912-.25 3.484-.25 2.848 0 3.913.09 1.066.091 1.598.37.663.355.927.988.258.608.263 1.484.008 1.32-.507 2.072-.489.725-1.755.962-1.265.236-4.61.237-2.737 0-3.721-.16-.99-.156-1.574-.684a2.26 2.26 0 0 1-.71-1.29q-.148-.788-.166-3.303-.014-1.905.12-2.66.134-.758.564-1.202.587-.609 1.788-.825 1.201-.214 4.06-.214 2.398 0 3.378.09.985.09 1.57.368.695.33 1.002.843.31.517.315 1.363zm-5.622 2.315q-2.331 0-3.399.082-1.067.084-1.433.296-.7.406-.693 1.455.011 1.314.855 1.646.82.315 4.027.316 3.6 0 4.32-.393.632-.348.622-1.62-.005-.606-.158-.95a1.05 1.05 0 0 0-.496-.516q-.313-.166-1.14-.237-.827-.072-2.505-.08m12.28-5.323h2.643l.075 10.29h-1.53l-.066-8.994h-.555l-3.794 3.111-.962-.918Zm6.317 6.788h1.566l.012.41q.006.851.163 1.208c.109.24.306.398.597.486q.304.096 1.689.162 1.384.065 3.052.064 1.322 0 2.45-.067 1.125-.07 1.447-.159a.87.87 0 0 0 .577-.494q.163-.365.158-1.19-.005-.664-.191-.965-.185-.303-.674-.463-.183-.059-1.033-.12a22 22 0 0 0-1.469-.06h-3.355l-.008-1.172h3.797q1.77 0 2.279-.283.505-.282.498-1.265-.005-.662-.2-1.008-.193-.347-.63-.473-.734-.212-4.053-.211-3.809 0-4.492.303a.77.77 0 0 0-.4.424q-.109.283-.103.936l.022.559H788.1q.012-1.361.164-1.9.15-.54.596-.88c.24-.18.5-.312.79-.391q.435-.12 1.259-.173 1.21-.082 3.808-.082 2.602 0 3.712.106 1.107.104 1.658.406.584.323.815.792t.235 1.373q.01 1.15-.258 1.58-.27.427-1.193.765.927.212 1.266.713.337.502.344 1.692.01 1.312-.446 1.877-.344.431-.861.643-.515.209-1.383.293-1.117.097-3.76.098-3.63 0-4.858-.196a2.66 2.66 0 0 1-1.148-.475q-.49-.364-.632-.862-.179-.597-.19-2m19.786-6.788h2.643l.074 10.29h-1.53l-.065-8.994h-.555l-3.795 3.111-.962-.918Zm36.944 5.631h-5.072l-.007-.972h5.072l-.03-4.166h1.12l.031 4.166h5.072l.008.972h-5.073l.03 4.166h-1.12Zm8.705 1.157h1.566q.012.31.012.41.006.851.163 1.208c.109.24.306.398.597.486q.304.096 1.689.162 1.384.065 3.053.064 1.32 0 2.45-.067 1.126-.07 1.446-.159a.87.87 0 0 0 .577-.494q.163-.365.158-1.19-.005-.664-.191-.965-.184-.303-.674-.463-.183-.059-1.033-.12a22 22 0 0 0-1.468-.06h-3.356l-.008-1.172h3.797q1.77 0 2.28-.283.504-.282.497-1.265-.005-.662-.2-1.008-.193-.347-.63-.473-.734-.212-4.053-.211-3.809 0-4.492.303a.77.77 0 0 0-.4.424q-.109.283-.103.936l.022.559h-1.616q.012-1.361.164-1.9.148-.54.595-.88c.24-.18.5-.312.79-.391q.435-.12 1.259-.173 1.21-.082 3.808-.082 2.602 0 3.712.106 1.108.104 1.658.406.585.323.815.792t.236 1.373q.009 1.15-.26 1.58-.268.427-1.192.765.928.212 1.266.713.337.502.345 1.692.008 1.312-.447 1.877-.343.431-.861.643-.513.209-1.383.293-1.117.097-3.76.098-3.63 0-4.858-.196a2.66 2.66 0 0 1-1.148-.475q-.49-.364-.632-.862-.179-.597-.19-2m14.898.571h1.536q.005.58.107.877.104.298.357.476c.25.183.61.3 1.085.363q.708.09 2.412.09c1.629 0 2.835-.034 3.627-.098q1.188-.096 1.662-.347a.97.97 0 0 0 .447-.432q.14-.275.205-.885a17 17 0 0 0 .06-2.304q-.336.486-1.02.787-.477.211-1.354.288-.875.074-2.814.074-2.329 0-3.332-.082-1.005-.085-1.616-.331a1.83 1.83 0 0 1-.983-.942q-.322-.67-.33-1.8-.009-1.21.378-1.86.3-.487.849-.745.548-.255 1.54-.36 1.413-.143 3.549-.144 2.919 0 4.302.219 1.042.165 1.691.82.41.413.554 1.178t.159 2.561q.021 2.874-.276 3.77c-.177.555-.497.96-.964 1.206q-.705.374-2.185.486-1.332.097-4.232.098-2.256 0-3.202-.162-.945-.162-1.52-.643a1.65 1.65 0 0 1-.531-.764q-.137-.432-.161-1.394m7.391-6.171q-3.324 0-4.451.156-.755.114-1.044.474-.286.36-.282 1.193.011 1.284.525 1.643.359.255 1.219.324.864.066 3.746.067c1.087 0 1.857-.023 2.323-.072q.693-.071 1.128-.28.466-.232.651-.564.185-.33.18-.938-.007-.834-.273-1.234-.27-.401-.932-.566-.764-.203-2.79-.203M883.122 215.084h1.566q.011.31.012.41.006.851.163 1.208c.109.24.306.398.597.486q.304.096 1.689.162 1.384.065 3.053.064 1.32 0 2.45-.067 1.125-.07 1.446-.159a.87.87 0 0 0 .577-.494q.163-.365.158-1.19-.006-.664-.191-.965-.184-.303-.674-.463-.183-.059-1.033-.12a22 22 0 0 0-1.468-.06h-3.356l-.008-1.172h3.797q1.77 0 2.279-.283.505-.282.498-1.265-.005-.662-.2-1.008-.193-.347-.63-.473-.734-.212-4.053-.211-3.809 0-4.492.303a.78.78 0 0 0-.4.424q-.109.283-.103.936l.022.559h-1.617q.012-1.361.165-1.9a1.6 1.6 0 0 1 .595-.88c.24-.18.5-.312.79-.391q.435-.12 1.259-.173 1.209-.082 3.808-.082 2.602 0 3.712.106 1.107.104 1.658.406.585.323.815.792t.236 1.373q.009 1.15-.26 1.58-.268.427-1.192.765.927.212 1.266.713.337.502.345 1.692.008 1.312-.447 1.877-.343.431-.861.643-.514.209-1.383.293-1.118.097-3.76.098-3.63 0-4.858-.196a2.7 2.7 0 0 1-1.148-.475q-.49-.364-.632-.862-.179-.597-.19-2m14.898.571h1.536q.006.58.107.877.104.298.357.476c.25.183.61.3 1.085.363q.708.09 2.412.09 2.44-.001 3.627-.098 1.188-.096 1.662-.347a.97.97 0 0 0 .447-.432q.14-.275.204-.885a17 17 0 0 0 .061-2.304q-.336.486-1.02.787-.477.211-1.354.288-.875.074-2.814.074-2.329 0-3.332-.082-1.005-.085-1.616-.331a1.83 1.83 0 0 1-.983-.942q-.322-.67-.33-1.8-.009-1.21.378-1.86.298-.487.849-.745.548-.255 1.54-.36 1.413-.143 3.549-.144 2.918 0 4.302.219 1.042.165 1.691.82.41.413.554 1.178t.159 2.561q.02 2.874-.276 3.77c-.177.555-.497.96-.964 1.206q-.705.374-2.185.486-1.331.097-4.233.098-2.256 0-3.201-.162t-1.52-.643a1.64 1.64 0 0 1-.531-.764q-.137-.432-.161-1.394m7.391-6.171q-3.323 0-4.451.156-.755.114-1.044.474-.287.36-.282 1.193.011 1.284.525 1.643.359.255 1.219.324.864.066 3.746.067c1.086 0 1.857-.023 2.322-.072q.695-.071 1.129-.28.466-.232.651-.564.184-.33.18-.938-.007-.834-.273-1.234-.27-.401-.932-.566-.764-.203-2.79-.203m7.379 5.6h1.566l.012.41q.006.851.163 1.208c.109.24.306.398.597.486q.304.096 1.688.162 1.385.065 3.053.064 1.321 0 2.45-.067 1.126-.07 1.446-.159a.88.88 0 0 0 .578-.494q.163-.365.158-1.19-.005-.664-.191-.965-.184-.303-.674-.463-.183-.059-1.033-.12a22 22 0 0 0-1.469-.06h-3.355l-.008-1.172h3.797q1.77 0 2.279-.283.505-.282.498-1.265-.006-.662-.2-1.008-.193-.347-.63-.473-.734-.212-4.053-.211-3.809 0-4.492.303a.77.77 0 0 0-.4.424q-.109.283-.103.936l.022.559h-1.617q.012-1.361.164-1.9.15-.54.596-.88c.24-.18.5-.312.79-.391q.435-.12 1.259-.173 1.209-.082 3.808-.082 2.603 0 3.711.106 1.11.104 1.658.406.586.323.816.792t.235 1.373q.009 1.15-.258 1.58-.27.427-1.193.765.927.212 1.266.713.337.502.344 1.692.01 1.312-.446 1.877-.343.431-.861.643-.514.209-1.383.293-1.118.097-3.76.098-3.63 0-4.858-.196a2.7 2.7 0 0 1-1.148-.475q-.49-.364-.632-.862-.179-.597-.19-2m25.523-6.788h2.643l.074 10.29h-1.53l-.066-8.994h-.555l-3.794 3.111-.962-.918Zm6.38 7.36h1.536q.005.578.107.876.104.298.357.476c.25.183.61.3 1.085.363q.708.09 2.413.09 2.44-.001 3.626-.098 1.188-.096 1.662-.347a.97.97 0 0 0 .448-.432q.139-.275.204-.885a17 17 0 0 0 .06-2.304q-.336.486-1.02.787-.477.211-1.354.288-.875.074-2.814.074-2.329 0-3.332-.082-1.004-.085-1.616-.331a1.83 1.83 0 0 1-.983-.942q-.321-.67-.33-1.8-.009-1.21.378-1.86.3-.487.849-.745.549-.255 1.54-.36 1.413-.143 3.55-.144 2.917 0 4.302.219 1.041.165 1.69.82.411.413.555 1.178t.158 2.561q.02 2.874-.275 3.77c-.177.555-.498.96-.965 1.206q-.705.374-2.185.486-1.33.097-4.232.098-2.257 0-3.202-.162t-1.52-.643a1.64 1.64 0 0 1-.531-.764q-.137-.432-.161-1.394m7.391-6.172q-3.322 0-4.45.156c-.505.075-.85.235-1.044.474q-.287.36-.282 1.193.01 1.284.525 1.643.358.255 1.218.324.864.066 3.747.067c1.086 0 1.856-.023 2.322-.072q.693-.071 1.128-.28.466-.232.651-.564.185-.33.18-.938-.006-.834-.272-1.234-.27-.401-.933-.566-.764-.203-2.79-.203m12.331-1.188h2.643l.075 10.29h-1.53l-.066-8.994h-.555l-3.795 3.111-.961-.918Zm11.453 0h2.643l.074 10.29h-1.53l-.065-8.994h-.555l-3.795 3.111-.962-.918Zm6.24 0h13.1l.014 1.995-8.405 8.296h-2.07l8.888-8.748-.003-.37h-11.515Zm21.1-.016q3.51 0 4.898.242 1.22.216 1.782 1.054.298.435.424 1.252.126.819.139 2.377.016 2.078-.22 3.26-.25 1.258-1.272 1.677-.59.25-1.907.363-1.32.112-3.568.113-3.04 0-4.44-.293-1.738-.376-2.02-2.058-.172-.99-.186-2.792-.015-2.025.247-3.163.319-1.408 1.794-1.746 1.249-.285 4.328-.286m.07 1.204q-2.096 0-3.048.108-.95.11-1.27.38-.371.333-.494 1.484-.104 1.034-.096 2.163.02 2.733.59 3.23.627.566 4.48.565 2.313 0 3.437-.123 1.125-.126 1.453-.412.614-.536.594-3.186-.011-1.62-.152-2.507-.143-.888-.432-1.167-.385-.362-1.697-.453-1.095-.081-3.365-.082m22.129 5.77.008 1.173h-2.118l.016 2.16h-1.53l-.016-2.16h-10.091l-.018-2.374 8.84-5.757h2.74l.05 6.958Zm-3.649 0-.042-5.786h-.67l-7.853 5.205.005.581ZM670.46 233.29h1.894l4.246 7.98h.17l3.189-7.98h2.689l3.339 7.98h.194l4.083-7.98h1.965l-4.927 9.33h-2.53l-3.373-7.94h-.16l-3.223 7.94h-2.507Zm21.156 0h1.895l4.246 7.98h.17l3.189-7.98h2.688l3.34 7.98h.194l4.083-7.98h1.965l-4.927 9.33h-2.53l-3.373-7.94h-.16l-3.223 7.94h-2.507Zm21.157 0h1.895l4.246 7.98h.17l3.189-7.98h2.688l3.34 7.98h.194l4.083-7.98h1.965l-4.927 9.33h-2.53l-3.374-7.94h-.158l-3.224 7.94h-2.507Zm21.607 7.073h2.51l.017 2.257h-2.51Zm16.504-1.109h1.736q-.022 1.698-.877 2.476-.624.568-1.68.789-1.061.222-3.148.222-2.788-.001-4.131-.178-1.339-.176-2.058-.639-1.583-1.033-1.605-3.946-.014-2.054.66-3.087.66-1.007 1.919-1.364 1.254-.358 4.127-.359 2.587 0 3.845.232 1.262.228 1.923.81.467.413.686.956.213.546.262 1.448h-1.779q-.046-1.32-1.008-1.736-.96-.42-3.924-.42-2.905 0-3.797.514-.587.331-.848 1.078-.262.744-.252 2.039.01 1.22.335 1.928.331.705 1.027 1.01.955.424 4.28.424 2.62 0 3.44-.42.818-.418.867-1.777m9.572-6.086q2.546 0 3.755.134 1.212.132 1.894.484 1.025.534 1.491 1.512c.307.651.465 1.541.473 2.66q.014 1.87-.526 2.845c-.26.49-.614.876-1.053 1.152q-.66.412-1.74.597-1.042.188-3.477.189-2.295 0-3.465-.135-1.173-.13-1.901-.477-1.084-.5-1.557-1.477-.471-.984-.485-2.741-.012-1.97.65-2.983a3.27 3.27 0 0 1 1.876-1.397q1.2-.352 4.065-.363m.28 1.29c-1.127 0-1.983.037-2.556.107-.576.074-1.032.205-1.376.397-.397.221-.69.577-.868 1.058q-.267.726-.257 1.978.01 1.42.38 2.126.368.705 1.259 1 .979.328 3.81.327c1.228 0 2.135-.04 2.712-.118q.87-.12 1.38-.443.566-.348.805-1.038.24-.692.23-1.941-.01-1.481-.403-2.17-.436-.771-1.444-1.028-1.009-.256-3.671-.255m8.91-1.169h1.698l.01 1.408h.124q.54-.899 1.653-1.213 1.12-.317 3.775-.316c1.542 0 2.69.074 3.434.222q1.118.22 1.76.803c.332.305.572.691.707 1.155q.203.693.212 2.002l.038 5.27h-1.697l-.034-4.642q-.008-1.251-.133-1.8a1.88 1.88 0 0 0-.487-.92q-.439-.433-1.33-.619-.89-.18-2.662-.181-1.975 0-3.079.252-1.096.25-1.652.823a2 2 0 0 0-.496.93c-.08.346-.113.96-.107 1.84l.031 4.317h-1.697Zm26.695 5.965h1.735q-.022 1.698-.877 2.476-.622.568-1.68.789-1.06.222-3.147.222-2.789-.001-4.132-.178-1.338-.176-2.058-.639-1.582-1.033-1.605-3.946-.014-2.054.66-3.087.66-1.007 1.919-1.364 1.254-.358 4.127-.359 2.587 0 3.845.232 1.263.228 1.924.81.467.413.685.956.214.546.262 1.448h-1.778q-.045-1.32-1.009-1.736-.96-.42-3.923-.42-2.906 0-3.797.514c-.394.221-.674.58-.848 1.078q-.263.744-.253 2.039.01 1.22.335 1.928.332.705 1.027 1.01.956.424 4.28.424 2.62 0 3.44-.42.819-.418.868-1.777m5.063-3.164h-1.77a5 5 0 0 1-.026-.406q-.012-1.47 1.256-2.002 1.268-.534 4.765-.534 2.749.001 3.954.218 1.203.217 1.893.826.568.493.744 1.166.174.669.188 2.344l.035 4.918h-1.697l.027-1.092h-.093q-.626.77-1.52.991-.885.222-3.36.222-2.824 0-3.93-.118c-.732-.08-1.292-.242-1.67-.494q-.57-.353-.795-.843-.225-.492-.231-1.377-.007-1.083.32-1.662.332-.581 1.126-.864.858-.327 4.027-.326 3.312 0 4.336.172c.683.114 1.208.39 1.583.83h.147l-.007-1.005q-.009-1.239-.525-1.783-.457-.488-1.384-.659-.923-.175-3.027-.174-2.76 0-3.566.282-.81.286-.804 1.24.002.05.005.13m4.38 2.277q-2.104-.001-2.944.064c-.562.044-.956.125-1.192.242q-.667.342-.661 1.27.005.916.803 1.242.652.267 4.365.266 2.72 0 3.589-.306.873-.307.866-1.243c-.004-.6-.332-1.01-.985-1.219-.652-.211-1.936-.316-3.841-.316m8.366-5.078h1.697l.009 1.256h.112q.394-.63 1.21-.994.486-.217 1.287-.299.801-.085 2.394-.084 1.592 0 2.372.151.781.156 1.337.558 1.098.815 1.112 2.643l.007.96h-1.744l-.005-.668q-.004-.776-.129-1.175a1.3 1.3 0 0 0-.43-.655q-.655-.524-2.7-.524c-2.054 0-3.373.232-3.947.695-.578.46-.86 1.515-.849 3.154l.031 4.313h-1.696Zm12.692 0h1.697l.067 9.33h-1.697Zm-.03-4.111h1.697l.012 1.753h-1.697Zm3.683 4.111h1.72l.01 1.23q.8-.847 1.61-1.099.818-.252 2.788-.252c1.759 0 3.027.11 3.796.336q1.152.333 1.79 1.29.517-.917 1.607-1.27 1.084-.357 3.403-.356 2.204-.001 3.299.245 1.1.247 1.785.887.527.51.69 1.145.162.636.175 2.267l.035 4.908h-1.696l-.038-5.25q-.013-1.727-.61-2.23-.796-.682-3.638-.682-1.627.001-2.478.188-.854.185-1.29.631c-.296.303-.495.702-.596 1.206q-.152.756-.14 2.459l.026 3.678h-1.697l-.038-5.25q-.007-.998-.135-1.471a1.43 1.43 0 0 0-.47-.75c-.557-.46-1.775-.691-3.662-.691q-1.635 0-2.513.191-.877.192-1.351.655-.407.407-.53 1.105-.129.7-.114 2.533l.027 3.678h-1.697Zm30.818-.121q2.545 0 3.756.134 1.21.132 1.894.484 1.025.534 1.49 1.512c.308.651.465 1.541.473 2.66q.014 1.87-.526 2.845-.391.737-1.053 1.152-.66.412-1.739.597-1.043.188-3.477.189-2.295 0-3.465-.135-1.174-.13-1.902-.477-1.084-.5-1.556-1.477-.472-.984-.485-2.741-.014-1.97.649-2.983a3.27 3.27 0 0 1 1.876-1.397q1.2-.352 4.065-.363m.281 1.29c-1.127 0-1.983.037-2.556.107-.577.074-1.033.205-1.377.397-.397.221-.689.577-.867 1.058q-.267.726-.257 1.978.008 1.42.38 2.126.369.705 1.258 1 .98.328 3.81.327 1.845 0 2.712-.118.87-.12 1.38-.443.566-.348.806-1.038.24-.692.23-1.941-.01-1.481-.404-2.17-.436-.771-1.444-1.028-1.01-.256-3.67-.255m8.91-1.169h1.697l.01 1.256h.111c.265-.42.665-.752 1.21-.994q.486-.217 1.288-.299.801-.085 2.393-.084 1.593 0 2.372.151.781.156 1.337.558 1.098.815 1.112 2.643l.007.96h-1.744l-.004-.668q-.005-.776-.13-1.175a1.3 1.3 0 0 0-.43-.655q-.655-.524-2.7-.524c-2.054 0-3.373.232-3.947.695-.578.46-.86 1.515-.849 3.154l.032 4.313h-1.697Zm24.334 5.965h1.736q-.023 1.698-.877 2.476-.623.568-1.68.789-1.061.222-3.148.222-2.789-.001-4.13-.178-1.34-.176-2.059-.639-1.583-1.033-1.605-3.946-.015-2.054.659-3.087.66-1.007 1.92-1.364 1.254-.358 4.127-.359 2.587 0 3.845.232 1.263.228 1.923.81.467.413.686.956.213.546.262 1.448h-1.779q-.046-1.32-1.008-1.736-.961-.42-3.923-.42-2.906 0-3.798.514c-.393.221-.673.58-.848 1.078q-.262.744-.252 2.039.01 1.22.335 1.928.331.705 1.027 1.01.955.424 4.28.424 2.62 0 3.44-.42.818-.418.867-1.777m3.255-10.076h1.697l.04 5.492h.135q.541-.873 1.685-1.19c.766-.208 2.024-.312 3.783-.312q2.225 0 3.376.225c.764.151 1.359.413 1.776.786q.552.494.737 1.21.187.719.2 2.38l.035 4.85h-1.697l-.032-4.39c-.007-.963-.05-1.635-.127-2.008a1.95 1.95 0 0 0-.499-.957c-.273-.292-.712-.504-1.317-.625-.602-.12-1.49-.181-2.656-.181q-1.964 0-3.066.242-1.102.24-1.657.782a1.94 1.94 0 0 0-.54.917q-.118.502-.11 1.83l.032 4.39h-1.697Zm15.24 4.111h1.697l.068 9.33h-1.697Zm-.03-4.111h1.698l.012 1.753h-1.697Zm4.363 11.185h2.51l.017 2.257h-2.51Zm16.504-1.109h1.735q-.022 1.698-.877 2.476-.623.568-1.68.789-1.06.222-3.147.222-2.79-.001-4.131-.178-1.34-.176-2.059-.639-1.582-1.033-1.605-3.946-.014-2.054.66-3.087.66-1.007 1.92-1.364 1.253-.358 4.126-.359 2.587 0 3.845.232 1.263.228 1.924.81.467.413.685.956.214.546.262 1.448h-1.778q-.046-1.32-1.008-1.736-.96-.42-3.924-.42-2.906 0-3.797.514-.588.331-.848 1.078-.263.744-.253 2.039.01 1.22.335 1.928c.22.47.565.806 1.027 1.01q.956.424 4.28.424 2.62 0 3.441-.42.817-.418.867-1.777m9.571-6.086q2.546 0 3.756.134 1.21.132 1.894.484 1.025.534 1.49 1.512c.308.651.465 1.541.473 2.66q.014 1.87-.525 2.845c-.26.49-.614.876-1.054 1.152q-.66.412-1.739.597-1.043.188-3.477.189-2.295 0-3.465-.135-1.174-.13-1.902-.477-1.084-.5-1.556-1.477-.472-.984-.485-2.741-.014-1.97.649-2.983a3.27 3.27 0 0 1 1.876-1.397q1.2-.352 4.065-.363m.281 1.29c-1.127 0-1.983.037-2.556.107q-.863.11-1.376.397c-.398.221-.69.577-.868 1.058q-.267.726-.257 1.978.01 1.42.38 2.126.369.705 1.258 1 .98.328 3.81.327 1.845 0 2.712-.118.87-.12 1.38-.443.566-.348.806-1.038.24-.692.23-1.941c-.008-.988-.14-1.71-.404-2.17q-.436-.771-1.444-1.028-1.01-.256-3.67-.255m8.91-1.169h1.72l.01 1.23q.8-.847 1.61-1.099.819-.252 2.788-.252 2.64-.001 3.796.336 1.151.333 1.79 1.29.517-.917 1.607-1.27 1.084-.357 3.403-.356 2.204-.001 3.299.245 1.1.247 1.784.887.529.51.69 1.145.163.636.176 2.267l.035 4.908h-1.696l-.038-5.25q-.013-1.727-.61-2.23-.796-.682-3.638-.682-1.627.001-2.478.188c-.57.124-.997.333-1.29.631-.296.303-.494.702-.596 1.206q-.152.756-.14 2.459l.026 3.678h-1.696l-.039-5.25q-.008-.998-.135-1.471a1.43 1.43 0 0 0-.47-.75c-.557-.46-1.775-.691-3.662-.691-1.088 0-1.929.064-2.513.191q-.877.192-1.351.655-.407.407-.53 1.105-.128.7-.114 2.533l.027 3.678H953ZM892.281 188.546h154.72l-.497 7.116H599.466l.136-.67.45-6.446Z"/><path fill="#fff" fill-rule="evenodd" d="M600.189 195.071h444.785l1.202-5.934H601.392Z"/><path fill="#00662b" fill-rule="evenodd" d="M600.189 195.071h153.534l.416-5.934H600.604Z"/><path fill="red" fill-rule="evenodd" d="M892.417 195.071h153.535l.415-5.934H892.833Z"/><path fill="#0b2469" fill-rule="evenodd" d="M771.675 174.88c4.592 0 4.446.453 4.824-.938l2.454-8.201h26.826l-2.629 9.138c4.618 0 4.447.372 4.788-.789.116-.391.2-.79.357-1.3l3.6-12.012c1.195-4.088 3.017-8.006-.059-11.367-1.01-1.104-2.908-1.948-5.116-1.948h-17.86c-2.8 0-5.955 1.67-7.571 3.113-2.125 1.899-3.382 3.567-4.334 6.81-.92 3.138-4.194 14.45-5.28 17.493m-128.12-11.631c-.278 2.235-.219 3.576.478 5.487.503 1.38 1.14 2.279 2.12 3.286 1.774 1.823 4.46 2.857 8.244 2.857h12.12c6.017 0 11.237-2.983 14.587-6.857.728-.841 1.302-1.574 1.913-2.557 3.547-5.71 3.762-12.255-.744-15.843-1.56-1.243-3.65-2.159-6.043-2.159h-15.275c-4.84 0-10.003 3.239-13.279 7.024-1.97 2.278-3.725 5.567-4.121 8.762m11.087 6.978c-2.733 0-4.838-1.506-5.72-3.184-3.239-6.159 3.843-15.093 11.642-15.093h13.283c6.453 0 9.184 5.916 5.302 12.131-2.046 3.279-6.226 6.146-10.394 6.146Zm33.436 4.652h4.648c.132-1.06.487-1.911.787-2.894.318-1.04.541-1.818.85-2.824.61-2.005 1.065-3.678 1.673-5.677.599-1.96 1.12-3.656 1.699-5.648.37-1.276 1.51-4.712 1.635-5.72l16.33 19.9c1.792 2.24 2.742 3.449 5.928 2.5 4.511-1.342 4.944-6.516 6.449-11.225.818-2.562 1.518-5.218 2.364-7.922.424-1.352.836-2.685 1.202-3.94.37-1.267.933-2.781 1.178-3.966h-4.648l-6.79 22.598-17.935-21.723c-2.169-1.95-6.528-.65-8.264 3.168-.796 1.75-6.67 22.648-7.106 23.373m-88.734-11.63c-.278 2.235-.185 3.538.481 5.483 1.36 3.97 5.4 6.147 10.196 6.147h23.077c.19-1.524 1.053-3.127 1.242-4.652h-23.908c-8.437 0-9.127-12.294 1.362-17.228 1.273-.598 2.838-1.05 4.56-1.05h23.575c.085-.58 1.183-4.147 1.387-4.486H627.37c-3.744 0-10.584-.432-13.564.437-3.245.945-5.689 2.35-8.245 4.43-.415.337-.52.583-.958.99-2.219 2.065-4.765 5.95-5.259 9.929m132.349 0c-.87 7.002 3.384 11.63 10.676 11.63h23.077c.19-1.524 1.053-3.127 1.242-4.652H742.78c-7.57 0-8.665-9.644-2.073-15.081 2.236-1.845 5.106-3.196 7.994-3.196h23.577c.084-.581 1.182-4.148 1.386-4.487h-13.946c-9.555 0-14.22-1.307-21.808 4.866-.416.338-.52.584-.96.992-2.217 2.064-4.764 5.948-5.257 9.928m120.835 3.152h.62c2.124 0 3.05.132 4.688-.589 4.14-1.824 7.073-7.556 3.478-10.3-.358-.272-.883-.481-1.357-.61-1.23-.332-18.783-.13-21.14-.13l-4.77 15.128c-.51 1.667-1.019 3.437-1.596 4.984 3.903 0 3.164.414 3.796-1.47.129-.383.296-.95.434-1.403l1.741-5.61h10.61l5.496 8.483 3.828.011Zm35.737 5.063c2.122 0 3.263-1.61 4.514-2.702l11.286-10.57-5.205 16.692c4.047 0 3.119.678 4.032-2.308l3.16-10.005c.27-.893.522-1.632.806-2.561.218-.72.603-1.655.72-2.501.22-1.573-.795-2.736-2.214-2.736-1.88 0-2.447.58-3.538 1.608-.176.165-.284.248-.47.41-.326.284-.642.53-.924.833l-7.49 7.03c-.396.37-.513.579-.952.962-.92.803-2.252 2.277-2.835 2.427-.059-.457-.542-1.366-.743-1.869l-4.657-10.553c-1.188-1.497-3.885-.894-5.262.654-1.168 1.313-1.386 2.592-1.98 4.535-.93 3.043-3.448 11.395-4.447 14.074 3.849 0 3.253.3 3.604-.897l4.178-13.274c.256-.832.566-1.537.685-2.383.473.13.387.315.6.793l3.501 7.968c1.074 2.461 1.359 4.373 3.631 4.373m37.937 3.42c2.16 0 3.325-.353 5.228-1.075 1.306-.495 2.911-1.561 3.91-2.448 1.289-1.14 2.15-2.053 3.107-3.544 2.23-3.483 2.75-7.914.322-10.687-1.245-1.423-3.246-2.357-5.38-2.357h-10.8c-4.124 0-8.955 3.202-11.192 6.702-2.416 3.784-3.007 8.255-.183 11.326.473.515 1.675 1.255 2.368 1.52 2.379.913 9.486.563 12.62.563m-13.385-8.893c.604-4.313 4.916-7.935 9.997-7.935h8.475c5.65 0 7.02 4.574 4.11 9.078-1.475 2.282-4.62 4.33-7.352 4.33h-10.8c-2.668 0-4.857-2.413-4.43-5.473m104.93-11.218h-3.281l-1.615 5.12c-.98 3.195-3.772 12.362-4.753 14.991.604 0 3.008.152 3.316-.12l1.795-5.548c.27-.882.73-2.005.86-2.815h19.245c-.114.823-1.557 5.16-1.923 6.352-.226.734-.533 1.435-.63 2.131h3.418c.15-1.073 4.8-15.348 5.491-17.63.21-.691.638-1.757.739-2.481h-3.418c-.117.839-1.548 5.128-1.924 6.352-.206.67-.514 1.4-.61 1.993h-19.245Zm-10.8 3.283c.12-.85.72-2.516 1.006-3.283h-10.116c-2.803 0-7.562-.306-9.86.298-2.936.772-6.324 2.796-8.156 5.304-1.948 2.668-2.395 3.491-2.864 6.848-.314 2.251.805 4.633 1.95 5.61 1.777 1.516 3.142 2.064 6.001 2.052 5.561-.024 11.12-.001 16.678-.001.216-.964.92-2.664 1.026-3.42h-17.498c-5.512 0-6.52-6.933-.903-11.39 1.825-1.449 3.929-2.018 6.195-2.018ZM864 174.884c.603 0 3.007.152 3.315-.12l6.333-19.991h-3.281l-1.615 5.12c-.98 3.195-3.773 12.362-4.752 14.991m173.8 0c.603 0 3.007.152 3.315-.12l6.154-19.991h-3.191l-1.615 5.12c-.98 3.195-3.683 12.362-4.663 14.991m-71.05-8.483h.513c2.124 0 3.05.132 4.688-.589 4.139-1.824 7.072-7.556 3.478-10.3-.357-.272-.883-.481-1.358-.61-1.23-.332-20.755-.13-23.11-.13L946.19 169.9c-.51 1.667-1.02 3.437-1.596 4.984 3.902 0 3.164.414 3.795-1.47.13-.383.297-.95.434-1.403l1.742-5.61h12.689l5.39 8.483 3.826.011Zm-13.515-8.345h16.425c2.635 0 4.118-.117 3.757 2.463-.13.934-1.61 2.599-3.508 2.599h-18.201Zm-112.143 0h14.453c2.635 0 4.117-.117 3.757 2.463-.131.934-1.61 2.599-3.508 2.599h-16.23Zm-60.733 3.032c.666-1.866 1.113-4.656 2.148-6.084.889-1.226 2.936-2.888 4.777-2.888h18.36c1.743 0 3.296 1.526 3.073 3.323-.332 2.671-1.129 3.742-1.365 5.65Z"/></svg>